<svg height="512" viewBox="0 0 512 512" width="512" xmlns="http://www.w3.org/2000/svg"><g id="filled_outline" data-name="filled outline"><path d="m104 120h160v128h-160z" fill="#f2f2f2"/><path d="m200 152h32v64h-32z" fill="#69b9e7"/><path d="m264 120h144v128h-144z" fill="#ebebeb"/><path d="m312 176h48v72h-48z" fill="#4298d1"/><path d="m200 184h32v32h-32z" fill="#4298d1"/><path d="m136 152h32v64h-32z" fill="#69b9e7"/><path d="m136 184h32v32h-32z" fill="#4298d1"/><path d="m408 120h-304l80-64h152z" fill="#de4c3b"/><path d="m264 120 72-64 72 64z" fill="#c94536"/><path d="m184 24h48v32h-48z" fill="#c94536"/><path d="m24 328h64v160h-64z" fill="#69b9e7"/><path d="m280 416-48-24h56.063c12.381 0 24.236-6.827 29.054-18.231 9.865-23.347-7.007-45.769-29.117-45.769h-72l-20.864-16.692a68 68 0 0 0 -85.877-.315l-21.259 17.007v136l192 24 141.732-27a32.314 32.314 0 0 0 26.268-31.741 32.315 32.315 0 0 0 -36.885-31.99z" fill="#fec9a3"/><g fill="#fbeebd"><path d="m208 272h88v16h-88z"/><path d="m16 272h40v16h-40z"/><path d="m72 272h32v16h-32z"/><path d="m360 272h32v16h-32z"/><path d="m312 272h32v16h-32z"/><path d="m408 272h32v16h-32z"/></g><path d="m104 256h304a8 8 0 0 0 8-8v-128c0-.2-.016-.362-.03-.527a7.989 7.989 0 0 0 -2.655-5.453l-72-64a8 8 0 0 0 -5.315-2.02h-96v-24a8 8 0 0 0 -8-8h-48a8 8 0 0 0 -8 8v28.159l-77 61.6a7.988 7.988 0 0 0 -2.95 5.469 5.447 5.447 0 0 0 -.05.772v128a8 8 0 0 0 8 8zm8-128h144v112h-144zm240 112h-32v-56h32zm16 0v-64a8 8 0 0 0 -8-8h-48a8 8 0 0 0 -8 8v64h-32v-112h128v112zm-82.958-128 50.958-45.292 50.958 45.292zm-61.042-80v16h-32v-16zm-37.194 32h128.152l-54 48h-134.152z"/><path d="m232 144h-32a8 8 0 0 0 -8 8v64a8 8 0 0 0 8 8h32a8 8 0 0 0 8-8v-64a8 8 0 0 0 -8-8zm-8 16v16h-16v-16zm0 48h-16v-16h16z"/><path d="m168 144h-32a8 8 0 0 0 -8 8v64a8 8 0 0 0 8 8h32a8 8 0 0 0 8-8v-64a8 8 0 0 0 -8-8zm-8 16v16h-16v-16zm0 48h-16v-16h16z"/><path d="m442.1 398.808a40.288 40.288 0 0 0 -32.116-9.454l-128.641 18.377-15.454-7.731h22.174c16.193 0 30.49-9.074 36.424-23.118 5.616-13.292 4.475-27.494-3.131-38.965a39.936 39.936 0 0 0 -33.356-17.917h-69.193l-18.673-14.939a75.639 75.639 0 0 0 -15.134-9.646 76.446 76.446 0 0 0 -80.733 9.335l-19.073 15.25h-61.194a8 8 0 0 0 -8 8v160a8 8 0 0 0 8 8h64a8 8 0 0 0 8-8v-14.934l183.008 22.876a8 8 0 0 0 2.489-.079l141.732-27a40.315 40.315 0 0 0 18.871-70.055zm-362.1 81.192h-48v-144h48zm340.234-26.856-140.492 26.765-183.742-22.968v-125.092l18.257-14.606a59.991 59.991 0 0 1 75.882.316l20.861 16.692a8 8 0 0 0 5 1.749h72a23.973 23.973 0 0 1 20.021 10.759c4.59 6.922 5.219 15.632 1.728 23.9-3.374 7.982-12.088 13.341-21.686 13.341h-96.063a8 8 0 0 0 0 16h38.112l46.31 23.155a7.982 7.982 0 0 0 4.709.764l131.116-18.731a24.315 24.315 0 0 1 7.987 47.956z"/><path d="m208 272.004h88v16h-88z"/><path d="m16 272.004h40v16h-40z"/><path d="m72 272.004h32v16h-32z"/><path d="m360 272.004h32v16h-32z"/><path d="m312 272.004h32v16h-32z"/><path d="m408 272.004h32v16h-32z"/></g></svg>