<?xml version="1.0" encoding="iso-8859-1"?>
<!-- Generator: Adobe Illustrator 19.0.0, SVG Export Plug-In . SVG Version: 6.00 Build 0)  -->
<svg version="1.1" id="Capa_1" xmlns="http://www.w3.org/2000/svg" xmlns:xlink="http://www.w3.org/1999/xlink" x="0px" y="0px"
	 viewBox="0 0 471.998 471.998" style="enable-background:new 0 0 471.998 471.998;" xml:space="preserve">
<path style="fill:#A9BFD1;" d="M355.999,183.998l-8,40v32l8,64h-240l-16-128l136-136L355.999,183.998z"/>
<path style="fill:#E8CDAF;" d="M3.999,335.998h464v136h-464V335.998z"/>
<path style="fill:#751616;" d="M411.999,191.998c-2.122,0-4.156-0.844-5.656-2.344L235.999,19.31L65.655,189.654
	c-3.178,3.069-8.243,2.981-11.312-0.197c-2.994-3.1-2.994-8.015,0-11.115l176-176c3.124-3.123,8.188-3.123,11.312,0l176,176
	c3.124,3.125,3.123,8.19-0.002,11.314C416.154,191.155,414.12,191.998,411.999,191.998L411.999,191.998z"/>
<path style="fill:#EF937D;" d="M339.972,72.025l40-40l32.001,32.001l-40,40L339.972,72.025z"/>
<path style="fill:#FFD884;" d="M187.999,175.998h96v144h-96V175.998z"/>
<path style="fill:#B59B7C;" d="M259.999,471.998l-48-48l56-32l-40-40l112,32l-40,40l104,48H259.999z"/>
<g>
	<path style="fill:#2273AF;" d="M59.999,119.998c-4.418-0.001-7.999-3.583-7.998-8.002c0-2.121,0.843-4.154,2.342-5.654l56-56
		c3.178-3.069,8.243-2.981,11.312,0.197c2.994,3.1,2.994,8.015,0,11.115l-56,56C64.155,119.155,62.121,119.998,59.999,119.998z"/>
	<path style="fill:#2273AF;" d="M43.999,79.998c-4.418-0.001-7.999-3.583-7.998-8.002c0-2.121,0.843-4.154,2.342-5.654l24-24
		c3.069-3.178,8.134-3.266,11.312-0.196s3.266,8.134,0.196,11.312c-0.064,0.067-0.13,0.132-0.196,0.196l-24,24
		C48.155,79.155,46.121,79.998,43.999,79.998z"/>
	<path style="fill:#2273AF;" d="M139.999,39.998c-4.418-0.001-7.999-3.583-7.998-8.002c0-2.121,0.843-4.154,2.342-5.654l8-8
		c3.069-3.178,8.134-3.266,11.312-0.197s3.266,8.134,0.197,11.312c-0.064,0.067-0.13,0.132-0.197,0.197l-8,8
		C144.155,39.155,142.121,39.998,139.999,39.998L139.999,39.998z"/>
	<path style="fill:#2273AF;" d="M75.999,311.998c-3.905-0.005-7.236-2.829-7.88-6.68l-8-48c-0.624-4.374,2.416-8.426,6.79-9.05
		c4.226-0.603,8.181,2.218,8.986,6.41l8,48c0.728,4.356-2.212,8.478-6.568,9.208C76.889,311.963,76.444,312,75.999,311.998z"/>
	<path style="fill:#2273AF;" d="M43.999,303.998c-3.799-0.003-7.072-2.678-7.832-6.4l-8-40c-0.779-4.349,2.114-8.506,6.463-9.286
		c4.202-0.753,8.254,1.925,9.209,6.086l8,40c0.884,4.329-1.908,8.555-6.237,9.439c-0.001,0-0.002,0-0.003,0.001
		C45.073,303.948,44.537,304.002,43.999,303.998z"/>
	<path style="fill:#2273AF;" d="M395.999,311.998c-3.977-0.003-7.347-2.928-7.912-6.864l-8-56c-0.627-4.374,2.41-8.429,6.784-9.056
		c4.374-0.627,8.429,2.41,9.056,6.784l8,56c0.627,4.374-2.409,8.428-6.783,9.055C396.765,311.972,396.382,311.999,395.999,311.998
		L395.999,311.998z"/>
</g>
<path style="fill:#594329;" d="M251.999,247.998c-4.418,0-8-3.582-8-8v-16c0-4.418,3.582-8,8-8s8,3.582,8,8v16
	C259.999,244.417,256.417,247.998,251.999,247.998z"/>
<g>
	<path style="fill:#2273AF;" d="M259.999,135.998c-4.418-0.001-7.999-3.583-7.998-8.002c0-2.121,0.843-4.155,2.342-5.654
		l10.344-10.344l-18.344-18.344c-3.123-3.124-3.123-8.188,0-11.312l24-24c3.178-3.069,8.242-2.982,11.312,0.196
		c2.994,3.1,2.994,8.015,0,11.116l-18.344,18.344l18.344,18.344c3.123,3.124,3.123,8.188,0,11.312l-16,16
		C264.155,135.155,262.121,135.998,259.999,135.998L259.999,135.998z"/>
	<path style="fill:#2273AF;" d="M387.999,223.998c-4.418,0-8-3.582-8-8v-8c0-4.418,3.582-8,8-8s8,3.582,8,8v8
		C395.999,220.417,392.417,223.998,387.999,223.998z"/>
	<path style="fill:#2273AF;" d="M67.999,231.998c-4.418,0-8-3.582-8-8v-8c0-4.418,3.582-8,8-8s8,3.582,8,8v8
		C75.999,228.417,72.417,231.998,67.999,231.998z"/>
</g>
<g>
	<path style="fill:#594329;" d="M121.655,418.342l-18.344-18.344l26.344-26.344c3.07-3.178,2.982-8.242-0.196-11.312
		c-3.1-2.994-8.015-2.994-11.116,0l-32,32c-3.123,3.124-3.123,8.188,0,11.312l18.344,18.344l-48,48h22.624l42.344-42.344
		C124.778,426.53,124.778,421.466,121.655,418.342z"/>
	<path style="fill:#594329;" d="M431.767,407.542l17.888-17.888c3.123-3.124,3.123-8.188,0-11.312l-16-16
		c-3.178-3.07-8.242-2.982-11.312,0.196c-2.995,3.1-2.995,8.016,0,11.116l10.344,10.344l-18.344,18.344
		c-3.124,3.124-3.124,8.19,0.001,11.314c0.144,0.144,0.293,0.282,0.447,0.414l53.208,45.608v-21.072L431.767,407.542z"/>
</g>
<g>
	<path style="fill:#8C6337;" d="M299.999,471.998v-48l104,48H299.999z"/>
	<path style="fill:#8C6337;" d="M267.999,471.998v-80l-56,32l48,48H267.999z"/>
</g>
<path style="fill:#2273AF;" d="M155.999,223.998c-2.122,0-4.156-0.844-5.656-2.344l-24-24c-3.123-3.124-3.123-8.188,0-11.312
	l10.344-10.344l-10.344-10.344c-3.069-3.178-2.981-8.243,0.197-11.312c3.1-2.994,8.015-2.994,11.115,0l16,16
	c3.123,3.124,3.123,8.188,0,11.312l-10.344,10.344l18.344,18.344c3.124,3.125,3.123,8.19-0.002,11.314
	C160.154,223.155,158.12,223.998,155.999,223.998L155.999,223.998z"/>
<g>
</g>
<g>
</g>
<g>
</g>
<g>
</g>
<g>
</g>
<g>
</g>
<g>
</g>
<g>
</g>
<g>
</g>
<g>
</g>
<g>
</g>
<g>
</g>
<g>
</g>
<g>
</g>
<g>
</g>
</svg>
