<?xml version="1.0" encoding="UTF-8" standalone="no"?>
<svg width="78px" height="60px" viewBox="0 0 78 60" version="1.1" xmlns="http://www.w3.org/2000/svg" xmlns:xlink="http://www.w3.org/1999/xlink">
    <!-- Generator: Sketch 43.2 (39069) - http://www.bohemiancoding.com/sketch -->
    <title>No_Photos_Icon</title>
    <desc>Created with Sketch.</desc>
    <defs></defs>
    <g id="Assets" stroke="none" stroke-width="1" fill="none" fill-rule="evenodd">
        <g id="No_Photos_Icon">
            <g id="Group-2" transform="translate(39.000000, 29.500000) rotate(-360.000000) translate(-39.000000, -29.500000) translate(0.000000, 0.000000)">
                <path d="M37.9407196,7.67448242 L67.3037646,3.54777557 C68.3133505,3.40588752 69.2462325,4.108466 69.3879479,5.11682363 L70.4401405,12.6035633 L73.4109447,12.186044 L72.3587521,4.69930432 C71.9863962,2.0498543 69.5361988,0.204544691 66.8862453,0.57697136 L37.5232003,4.70367821 L37.9407196,7.67448242 Z M72.3444982,26.1537722 L74.968231,44.8226014 C75.1098596,45.8303408 74.4018155,46.7679461 73.3930485,46.9097191 L69.8207567,47.411772 L70.238276,50.3825762 L73.8105678,49.8805233 C76.458703,49.5083522 78.3114451,47.054916 77.9390352,44.4050821 L75.3153024,25.7362529 L72.3444982,26.1537722 Z M47.2868397,50.5787075 L11.571353,55.5981918 C10.556031,55.740886 9.62142897,55.0383547 9.47926463,54.0268029 L8.28856849,45.5545596 L5.31776429,45.9720789 L6.50846043,54.4443222 C6.88143701,57.0981885 9.33440093,58.9420576 11.9888723,58.568996 L47.704359,53.5495117 L47.2868397,50.5787075 Z M6.27281705,31.2117428 L3.89922932,14.3227886 C3.75707397,13.3113007 4.45953668,12.3799558 5.47766154,12.2368677 L8.60938872,11.7967321 L8.19186942,8.82592794 L5.06014223,9.2660635 C2.40187364,9.63965878 0.55559777,12.0875035 0.928425117,14.7403079 L3.30201284,31.6292621 L6.27281705,31.2117428 Z" id="Rectangle-2-Copy-3" fill="#DDDDDD" fill-rule="nonzero"></path>
                <path d="M4.43879417,43.7807089 C4.43842655,43.7805808 67.9514488,53.8401252 67.9514488,53.8401252 L74.3320058,13.5548733 C74.3323735,13.5550015 10.8193512,3.49545706 10.8193512,3.49545706 L4.43879417,43.7807089 Z M7.85660889,3.02411637 C8.11561979,1.38878591 9.65071637,0.272968106 11.2870741,0.532141704 L74.8028898,10.5920586 C76.4384725,10.8511095 77.5532193,12.3942917 77.2953935,14.0221394 L70.9141911,54.3114659 C70.6551802,55.9467963 69.1200836,57.0626141 67.4837259,56.8034405 L3.96791021,46.7435236 C2.33232751,46.4844728 1.21758071,44.9412906 1.47540647,43.3134428 L7.85660889,3.02411637 Z" id="Rectangle-2-Copy-4" fill="#DEDEDE" fill-rule="nonzero"></path>
                <g id="zsg-icon-house-line-copy" transform="translate(52.054019, 30.182435) rotate(9.000000) translate(-52.054019, -30.182435) translate(36.554019, 15.682435)" fill="#DDDDDD">
                    <path d="M26.8400325,15.2437938 L26.8400322,27.1113529 C26.8400322,27.843055 26.4746665,28.8186578 25.134992,28.8186578 L18.4366196,28.8186578 L18.4366196,16.6668262 L11.7382473,16.6668262 L11.7382473,28.8186578 L5.03987488,28.8186578 C3.70020041,28.8186578 3.33483464,27.843055 3.33483464,27.1113529 L3.33483493,15.2437938 L0.655485976,15.2437938 C-0.318822733,15.2437938 -0.0752455556,14.7559924 0.533697387,14.0242903 L13.9304421,0.487801401 C14.2958079,0.12195035 14.6611737,0 15.148328,0 C15.6354824,0 16.0008481,0.243900701 16.3662139,0.487801401 L29.7629587,14.0242903 C30.4936902,14.7559924 30.7372674,15.2437938 29.6411701,15.2437938 L26.8400325,15.2437938 Z" id="Shape"></path>
                </g>
                <path d="M30.8856935,36.2834648 C30.7092073,35.9211837 30.6111991,35.5204513 30.6111991,35.0989703 C30.6111991,33.4778791 32.0610435,32.1637251 33.8495172,32.1637251 C35.6379909,32.1637251 37.0878353,33.4778791 37.0878353,35.0989703 C37.0878353,35.5237325 36.9882951,35.9274217 36.8092049,36.2919187 C38.4239044,36.457945 39.6784897,37.7003293 39.6784897,39.2083137 C39.6784897,40.8294049 38.2286453,42.1435589 36.4401717,42.1435589 C35.15838,42.1435589 34.0505263,41.4685399 33.5256854,40.4892915 C33.0008444,41.4685399 31.8929907,42.1435589 30.6111991,42.1435589 C28.8227254,42.1435589 27.372881,40.8294049 27.372881,39.2083137 C27.372881,37.5872225 28.8227254,36.2730684 30.6111991,36.2730684 C30.7036533,36.2730684 30.7952026,36.2765803 30.8856935,36.2834648 Z" id="Combined-Shape" fill="#DDDDDD" transform="translate(33.525685, 37.153642) rotate(9.000000) translate(-33.525685, -37.153642) "></path>
                <ellipse id="Oval-Copy" fill="#DDDDDD" cx="23.8768116" cy="18.4534965" rx="6.13768116" ry="6.12692308"></ellipse>
                <rect id="Rectangle-Copy" fill="#DDDDDD" transform="translate(36.768749, 43.263267) rotate(9.000000) translate(-36.768749, -43.263267) " x="6.63831443" y="40.4783018" width="60.2608696" height="5.56993007"></rect>
            </g>
        </g>
    </g>
</svg>