<svg xmlns="http://www.w3.org/2000/svg" viewBox="0 0 15.56 20" width="18" height="20"> <g id="Warstwa_2"> <g id="Pinterest"> <path class="cls-1" d="M6.4,13.23C5.87,16,5.23,18.62,3.33,20c-.59-4.16.86-7.29,1.53-10.6C3.72,7.47,5,3.58,7.42,4.54c3,1.18-2.58,7.17,1.15,7.92,3.89.78,5.48-6.75,3.07-9.2-3.48-3.54-10.15-.08-9.33,5,.2,1.24,1.48,1.61.51,3.32C.59,11.07-.08,9.31,0,7A7.51,7.51,0,0,1,6.78.07C11-.4,14.92,1.61,15.47,5.56c.61,4.46-1.9,9.29-6.39,8.94C7.86,14.41,7.35,13.81,6.4,13.23Z"></path> </g> </g> </svg>